<svg xmlns="http://www.w3.org/2000/svg" width="42" height="42" viewBox="0 0 42 42" fill="none">
	<path fill-rule="evenodd" clip-rule="evenodd" d="M20.2092 0.0788733C19.993 -0.0262911 19.7385 -0.0262911 19.5222 0.0788733L14.8366 2.35761C14.5764 2.48416 14.412 2.74285 14.412 3.02583V5.60291C14.412 5.93939 13.9937 6.1079 13.7491 5.86997L11.8745 4.04666C11.6688 3.84656 11.3645 3.77669 11.0885 3.86617L6.11867 5.47748C5.88931 5.55185 5.70933 5.7269 5.63288 5.94999L3.97626 10.7839C3.88426 11.0524 3.95609 11.3483 4.16182 11.5484L6.04183 13.377C6.28645 13.615 6.1132 14.0218 5.76726 14.0218H3.11091C2.81998 14.0218 2.55401 14.1817 2.4239 14.4348L0.0810911 18.9923C-0.0270303 19.2026 -0.0270304 19.4501 0.081091 19.6605L2.4239 24.2179C2.55401 24.471 2.81998 24.6309 3.11091 24.6309H5.75756C6.1035 24.6309 6.27675 25.0378 6.03213 25.2757L4.16066 27.096C3.95493 27.2961 3.8831 27.592 3.9751 27.8605L5.63171 32.6944C5.70817 32.9175 5.88815 33.0926 6.11751 33.1669L11.0874 34.7782C11.3634 34.8677 11.6677 34.7979 11.8734 34.5978L13.7496 32.7728C13.9943 32.5349 14.4125 32.7034 14.4125 33.0399V35.6179C14.4125 35.9009 14.5769 36.1595 14.8371 36.2861L19.5227 38.5648C19.739 38.67 19.9935 38.67 20.2097 38.5648L24.8954 36.2861C25.1556 36.1595 25.32 35.9009 25.32 35.6179V33.0399C25.32 32.7034 25.7382 32.5349 25.9828 32.7729L27.8571 34.5959C28.0629 34.796 28.3672 34.8659 28.6432 34.7764L33.613 33.1651C33.8424 33.0907 34.0223 32.9157 34.0988 32.6926L35.7554 27.8587C35.8474 27.5902 35.7756 27.2942 35.5699 27.0941L33.6945 25.2701C33.4499 25.0321 33.6231 24.6253 33.9691 24.6253H36.6209C36.9119 24.6253 37.1778 24.4654 37.3079 24.2123L39.6507 19.6549C39.7589 19.4445 39.7589 19.197 39.6507 18.9866L37.3079 14.4292C37.1778 14.1761 36.9119 14.0162 36.6209 14.0162H33.9743C33.6283 14.0162 33.4551 13.6094 33.6997 13.3714L35.5712 11.5511C35.7769 11.351 35.8487 11.0551 35.7567 10.7866L34.1001 5.95268C34.0237 5.7296 33.8437 5.55454 33.6143 5.48018L28.6445 3.86887C28.3685 3.77938 28.0642 3.84925 27.8585 4.04935L25.9823 5.87417C25.7377 6.1121 25.3194 5.94359 25.3194 5.6071V3.02583C25.3194 2.74285 25.1551 2.48416 24.8948 2.35761L20.2092 0.0788733ZM8.87551 14.5861C8.65134 14.6587 8.54532 14.9077 8.651 15.1133L10.645 18.9923C10.7531 19.2026 10.7531 19.4501 10.645 19.6605L8.65449 23.5327C8.54881 23.7382 8.65483 23.9872 8.87901 24.0599L13.1015 25.4289C13.3309 25.5033 13.5109 25.6783 13.5873 25.9014L14.9953 30.0097C15.07 30.2277 15.3259 30.3308 15.5373 30.228L19.5227 28.2898C19.739 28.1846 19.9935 28.1846 20.2097 28.2898L24.193 30.227C24.4043 30.3297 24.6603 30.2266 24.735 30.0086L26.1432 25.8995C26.2196 25.6765 26.3996 25.5014 26.629 25.427L30.8543 24.0571C31.0785 23.9844 31.1845 23.7355 31.0788 23.5299L29.0868 19.6549C28.9787 19.4445 28.9787 19.197 29.0868 18.9866L31.0773 15.1144C31.183 14.9089 31.077 14.6599 30.8528 14.5872L26.6303 13.2182C26.4009 13.1439 26.221 12.9688 26.1445 12.7457L24.7356 8.63459C24.6609 8.41654 24.4049 8.31342 24.1936 8.41621L20.2092 10.3539C19.993 10.4591 19.7385 10.4591 19.5222 10.3539L15.5384 8.41647C15.3271 8.31368 15.0711 8.4168 14.9964 8.63485L13.5885 12.743C13.512 12.9661 13.3321 13.1412 13.1027 13.2155L8.87551 14.5861Z" fill="#2D6BFF"/>
</svg>
